<svg width="29" height="28" viewBox="0 0 29 28" fill="none" xmlns="http://www.w3.org/2000/svg">
<path d="M9.53646 18.6668H18.0102C23.2457 18.6668 24.042 15.3778 25.0076 10.5808C25.2862 9.19712 25.4255 8.50531 25.0906 8.04441C24.7556 7.5835 24.1136 7.5835 22.8296 7.5835H22.3698M7.20312 7.5835H8.95312" stroke="white" stroke-width="2" stroke-linecap="round"/>
<path d="M12.4531 8.16667C12.4531 8.16667 13.6198 8.16667 14.7865 10.5C14.7865 10.5 18.4924 4.66667 21.7865 3.5" stroke="white" stroke-width="2" stroke-linecap="round" stroke-linejoin="round"/>
<path d="M9.53385 18.6668L6.47571 4.10091C6.21603 3.06218 5.28273 2.3335 4.21205 2.3335H3.11719" stroke="white" stroke-width="2" stroke-linecap="round"/>
<path d="M10.5631 18.6665H10.0831C8.49255 18.6665 7.20312 20.0097 7.20312 21.6665C7.20312 21.9426 7.41802 22.1665 7.68313 22.1665H20.6198" stroke="white" stroke-width="2" stroke-linecap="round" stroke-linejoin="round"/>
<path d="M12.4531 25.6665C13.4196 25.6665 14.2031 24.883 14.2031 23.9165C14.2031 22.95 13.4196 22.1665 12.4531 22.1665C11.4866 22.1665 10.7031 22.95 10.7031 23.9165C10.7031 24.883 11.4866 25.6665 12.4531 25.6665Z" stroke="white" stroke-width="2"/>
<path d="M20.6172 25.6665C21.5837 25.6665 22.3672 24.883 22.3672 23.9165C22.3672 22.95 21.5837 22.1665 20.6172 22.1665C19.6507 22.1665 18.8672 22.95 18.8672 23.9165C18.8672 24.883 19.6507 25.6665 20.6172 25.6665Z" stroke="white" stroke-width="2"/>
</svg>
