<svg width="29" height="28" viewBox="0 0 29 28" fill="none" xmlns="http://www.w3.org/2000/svg">
<path d="M25.0347 19.6411C24.269 15.0342 21.8853 11.6037 19.8131 9.58867C19.21 9.00233 18.9085 8.70916 18.2425 8.43784C17.5764 8.1665 17.004 8.1665 15.859 8.1665H13.3441C12.1992 8.1665 11.6267 8.1665 10.9606 8.43784C10.2946 8.70916 9.99312 9.00233 9.39011 9.58867C7.31785 11.6037 4.9341 15.0342 4.16837 19.6411C3.59865 23.0688 6.76071 25.6665 10.2946 25.6665H18.9085C22.4424 25.6665 25.6045 23.0688 25.0347 19.6411Z" stroke="white" stroke-width="2" stroke-linecap="round" stroke-linejoin="round"/>
<path d="M9.06501 5.18351C8.82432 4.83317 8.47545 4.35765 9.19611 4.24922C9.93686 4.13776 10.706 4.64483 11.4589 4.63441C12.1401 4.62498 12.4871 4.32288 12.8593 3.89156C13.2513 3.43736 13.8584 2.3335 14.599 2.3335C15.3396 2.3335 15.9466 3.43736 16.3386 3.89156C16.7109 4.32288 17.0578 4.62498 17.7389 4.63441C18.4919 4.64483 19.2611 4.13776 20.0018 4.24922C20.7224 4.35765 20.3736 4.83317 20.1329 5.18351L19.0445 6.76758C18.579 7.4452 18.3463 7.78401 17.8591 7.97543C17.372 8.16683 16.7425 8.16683 15.4835 8.16683H13.7144C12.4554 8.16683 11.8259 8.16683 11.3388 7.97543C10.8516 7.78401 10.6189 7.4452 10.1533 6.76758L9.06501 5.18351Z" stroke="white" stroke-width="2" stroke-linejoin="round"/>
<path d="M16.4991 15.0716C16.2468 14.1405 14.963 13.3002 13.422 13.9288C11.8809 14.5573 11.6361 16.5797 13.9672 16.7946C15.0207 16.8917 15.7076 16.6819 16.3364 17.2754C16.9654 17.8688 17.0822 19.5192 15.4745 19.9639C13.8668 20.4086 12.2749 19.7138 12.1016 18.7269M14.4166 12.8247V13.7118M14.4166 20.1007V20.9914" stroke="white" stroke-width="2" stroke-linecap="round" stroke-linejoin="round"/>
</svg>
