<svg width="20" height="20" viewBox="0 0 20 20" fill="none" xmlns="http://www.w3.org/2000/svg">
<path fill-rule="evenodd" clip-rule="evenodd" d="M3.33203 2.50016C3.33203 1.57968 4.07823 0.833487 4.99871 0.833496L11.6654 0.833563C12.5859 0.833571 13.332 1.57976 13.332 2.50023V4.16682C13.332 5.0873 12.5859 5.83349 11.6654 5.83349H4.9987C4.07822 5.83349 3.33203 5.0873 3.33203 4.16682V2.50016ZM11.6654 2.50023L4.9987 2.50016V4.16682H11.6654V2.50023Z" fill="white"/>
<path d="M5 4.1665C4.66295 4.1665 4.35908 4.36954 4.2301 4.68094C4.10248 4.98902 4.17093 5.34315 4.40321 5.58146L4.40173 5.58025C4.40173 5.58025 4.43698 5.63115 4.48072 5.76382C4.52939 5.91146 4.56849 6.10581 4.58135 6.32143C4.60807 6.76944 4.51608 7.16626 4.33974 7.40784L3.23043 8.7945C2.7576 9.3855 2.5 10.1199 2.5 10.8768V17.4998C2.5 18.4203 3.24619 19.1665 4.16667 19.1665H10.2083C10.1492 19.1221 10.0907 19.0762 10.0328 19.0288C7.80773 17.206 7.48159 13.9245 9.30442 11.6993C10.4852 10.258 12.278 9.6135 13.9993 9.83367C13.8758 9.45909 13.6861 9.10675 13.4363 8.7945L12.3269 7.40785C12.1506 7.16627 12.0586 6.76944 12.0853 6.32143C12.0982 6.10581 12.1372 5.91146 12.1859 5.76382C12.2297 5.63116 12.2649 5.58025 12.2649 5.58025L12.2634 5.58146C12.4957 5.34315 12.5642 4.98902 12.4366 4.68094C12.3076 4.36954 12.0037 4.1665 11.6667 4.1665H5Z" fill="white"/>
<path fill-rule="evenodd" clip-rule="evenodd" d="M15.2324 11.5262C13.5943 10.6282 11.4982 10.9939 10.2713 12.4915C9.04766 13.9853 9.09832 16.1056 10.2923 17.5348L15.2324 11.5262ZM16.221 12.292L11.2349 18.3566C12.8988 19.3997 15.1182 19.0673 16.3953 17.5083C17.6694 15.9529 17.5621 13.7185 16.221 12.292Z" fill="white"/>
</svg>
