<svg width="20" height="20" viewBox="0 0 20 20" fill="none" xmlns="http://www.w3.org/2000/svg">
<path fill-rule="evenodd" clip-rule="evenodd" d="M8.00546 3.00837C6.71195 3.71554 5.83464 5.08873 5.83464 6.66683C5.83464 7.51191 6.08622 8.29824 6.51859 8.955C4.86206 8.877 3.54297 7.5093 3.54297 5.8335C3.54297 4.1076 4.94208 2.7085 6.66797 2.7085C7.14655 2.7085 7.6 2.81608 8.00546 3.00837ZM6.90178 10.2085C4.83863 10.8246 3.33464 12.7367 3.33464 15.0002V16.4585H1.66797C1.32279 16.4585 1.04297 16.1787 1.04297 15.8335V14.1668C1.04297 11.9807 2.81518 10.2085 5.0013 10.2085H6.90178ZM10.0013 3.54183C8.27541 3.54183 6.8763 4.94094 6.8763 6.66683C6.8763 8.39275 8.27541 9.79183 10.0013 9.79183C11.7272 9.79183 13.1263 8.39275 13.1263 6.66683C13.1263 4.94094 11.7272 3.54183 10.0013 3.54183ZM8.33464 11.0418C6.14851 11.0418 4.3763 12.814 4.3763 15.0002V16.6668C4.3763 17.012 4.65613 17.2918 5.0013 17.2918H15.0013C15.3465 17.2918 15.6263 17.012 15.6263 16.6668V15.0002C15.6263 12.814 13.8541 11.0418 11.668 11.0418H8.33464ZM16.4596 5.8335C16.4596 7.5093 15.1406 8.877 13.4841 8.955C13.9164 8.29824 14.168 7.51191 14.168 6.66683C14.168 5.08873 13.2906 3.71554 11.9971 3.00837C12.4026 2.81608 12.8561 2.7085 13.3346 2.7085C15.0606 2.7085 16.4596 4.1076 16.4596 5.8335ZM18.3346 16.4585H16.668V15.0002C16.668 12.7367 15.164 10.8246 13.1008 10.2085H15.0013C17.1875 10.2085 18.9596 11.9807 18.9596 14.1668V15.8335C18.9596 16.1787 18.6798 16.4585 18.3346 16.4585Z" fill="white"/>
</svg>
