<svg width="29" height="28" viewBox="0 0 29 28" fill="none" xmlns="http://www.w3.org/2000/svg">
<path d="M24.8984 8.1665V13.9998M3.89844 8.1665C3.89844 11.7418 3.89844 19.5697 3.89844 20.0214C3.89844 21.6343 6.16835 22.5932 10.7082 24.5109C12.532 25.2813 13.4439 25.6665 14.3984 25.6665V13.2471" stroke="white" stroke-width="2" stroke-linecap="round" stroke-linejoin="round"/>
<path d="M17.8984 22.1667C17.8984 22.1667 18.9193 22.1667 19.9401 24.5C19.9401 24.5 23.1827 18.6667 26.0651 17.5" stroke="white" stroke-width="2" stroke-linecap="round" stroke-linejoin="round"/>
<path d="M10.112 11.3068L6.70394 9.65765C4.8336 8.75261 3.89844 8.3001 3.89844 7.5835C3.89844 6.86689 4.8336 6.41438 6.70394 5.50934L10.112 3.86022C12.2154 2.84241 13.2671 2.3335 14.3984 2.3335C15.5298 2.3335 16.5815 2.8424 18.6849 3.86022L22.093 5.50934C23.9632 6.41438 24.8984 6.86689 24.8984 7.5835C24.8984 8.3001 23.9632 8.75261 22.093 9.65765L18.6849 11.3068C16.5815 12.3246 15.5298 12.8335 14.3984 12.8335C13.2671 12.8335 12.2154 12.3246 10.112 11.3068Z" stroke="white" stroke-width="2" stroke-linecap="round" stroke-linejoin="round"/>
<path d="M7.39844 14L9.73177 15.1667" stroke="white" stroke-width="2" stroke-linecap="round" stroke-linejoin="round"/>
<path d="M20.2292 4.6665L8.5625 10.4998" stroke="white" stroke-width="2" stroke-linecap="round" stroke-linejoin="round"/>
</svg>
