<svg width="24" height="24" viewBox="0 0 24 24" fill="none" xmlns="http://www.w3.org/2000/svg">
<path d="M11.9981 21.715V21.7143H4.5784C4.18387 21.7137 3.80566 21.5568 3.52661 21.2778C3.24757 20.9989 3.09044 20.6208 3.08965 20.2263V10.2603L10.6534 3.61004C11.0255 3.28403 11.5034 3.10431 11.9981 3.10431C12.4929 3.10431 12.9708 3.28403 13.3429 3.61004L21.0656 10.4013L21.0746 10.4088L22.8746 11.9928C22.9873 12.086 23.1319 12.1317 23.2777 12.1201C23.4235 12.1086 23.5591 12.0407 23.6557 11.9308C23.7522 11.821 23.8022 11.6778 23.795 11.5317C23.7879 11.3857 23.724 11.2481 23.6171 11.1483L22.0271 9.74954V4.06979C22.0059 3.29969 21.6851 2.56827 21.1329 2.03109C20.5806 1.49391 19.8407 1.19336 19.0703 1.19336C18.2999 1.19336 17.5599 1.49391 17.0077 2.03109C16.4555 2.56827 16.1346 3.29969 16.1134 4.06979V4.55129L14.0884 2.76779C13.5108 2.26187 12.769 1.98298 12.0011 1.98298C11.2333 1.98298 10.4915 2.26187 9.9139 2.76779L0.378398 11.146C0.266311 11.2448 0.198047 11.384 0.188623 11.5331C0.179199 11.6822 0.229388 11.8289 0.328148 11.941C0.426908 12.0531 0.566149 12.1214 0.715241 12.1308C0.864332 12.1402 1.01106 12.09 1.12315 11.9913L1.9669 11.2488V20.2263C1.96749 20.9193 2.24306 21.5838 2.73311 22.0738C3.22315 22.5639 3.88762 22.8394 4.58065 22.84H11.9981C12.1473 22.84 12.2904 22.7808 12.3959 22.6753C12.5014 22.5698 12.5606 22.4267 12.5606 22.2775C12.5606 22.1284 12.5014 21.9853 12.3959 21.8798C12.2904 21.7743 12.1473 21.715 11.9981 21.715ZM17.2391 4.06979C17.2488 3.59036 17.4461 3.13384 17.7886 2.79822C18.1311 2.46259 18.5915 2.2746 19.071 2.2746C19.5505 2.2746 20.011 2.46259 20.3534 2.79822C20.6959 3.13384 20.8932 3.59036 20.9029 4.06979V8.75879L17.2391 5.53379V4.06979Z" fill="#6200EA" stroke="#6200EA" stroke-width="0.3"/>
<path d="M11.9962 6.83594C11.2762 6.83594 10.5856 7.12198 10.0765 7.63114C9.56729 8.1403 9.28125 8.83087 9.28125 9.55094C9.28125 10.271 9.56729 10.9616 10.0765 11.4707C10.5856 11.9799 11.2762 12.2659 11.9962 12.2659C12.7163 12.2659 13.4069 11.9799 13.916 11.4707C14.4252 10.9616 14.7113 10.271 14.7113 9.55094C14.7113 8.83087 14.4252 8.1403 13.916 7.63114C13.4069 7.12198 12.7163 6.83594 11.9962 6.83594ZM13.5863 9.55169C13.5862 9.76049 13.5449 9.96723 13.4649 10.1601C13.3849 10.353 13.2677 10.5282 13.12 10.6758C12.9723 10.8233 12.797 10.9404 12.604 11.0202C12.4111 11.1 12.2043 11.141 11.9955 11.1409C11.7867 11.1408 11.58 11.0996 11.3871 11.0196C11.1942 10.9396 11.019 10.8224 10.8714 10.6747C10.7238 10.527 10.6068 10.3517 10.527 10.1587C10.4472 9.96577 10.4062 9.75899 10.4062 9.55019C10.4064 9.12849 10.5742 8.72415 10.8725 8.42611C11.1708 8.12807 11.5753 7.96074 11.997 7.96094C12.4187 7.96114 12.823 8.12884 13.1211 8.42717C13.4191 8.72549 13.5864 9.12999 13.5863 9.55169C13.5863 9.55094 13.5863 9.55094 13.5863 9.55169ZM18.879 12.9837C17.9043 12.9837 16.9515 13.2727 16.141 13.8142C15.3306 14.3558 14.6989 15.1255 14.3259 16.026C13.9529 16.9265 13.8553 17.9174 14.0454 18.8734C14.2356 19.8294 14.705 20.7075 15.3942 21.3967C16.0834 22.086 16.9616 22.5553 17.9175 22.7455C18.8735 22.9356 19.8644 22.8381 20.765 22.465C21.6655 22.092 22.4352 21.4604 22.9767 20.6499C23.5182 19.8395 23.8073 18.8867 23.8073 17.9119C23.8055 16.6054 23.2857 15.353 22.3618 14.4291C21.438 13.5053 20.1855 12.9855 18.879 12.9837ZM18.879 21.7144C18.127 21.7143 17.3919 21.4912 16.7667 21.0733C16.1415 20.6554 15.6543 20.0615 15.3666 19.3667C15.0788 18.672 15.0036 17.9075 15.1504 17.1699C15.2971 16.4324 15.6592 15.7549 16.191 15.2232C16.7227 14.6914 17.4002 14.3293 18.1377 14.1825C18.8753 14.0358 19.6398 14.111 20.3346 14.3987C21.0293 14.6865 21.6232 15.1737 22.0411 15.7989C22.459 16.4241 22.6821 17.1592 22.6823 17.9112C22.6807 18.9193 22.2794 19.8864 21.5665 20.5992C20.8536 21.312 19.8871 21.713 18.879 21.7144Z" fill="#6200EA"/>
<path d="M13.5863 9.55169C13.5862 9.76049 13.5449 9.96723 13.4649 10.1601C13.3849 10.353 13.2677 10.5282 13.12 10.6758C12.9723 10.8233 12.797 10.9404 12.604 11.0202C12.4111 11.1 12.2043 11.141 11.9955 11.1409C11.7867 11.1408 11.58 11.0996 11.3871 11.0196C11.1942 10.9396 11.019 10.8224 10.8714 10.6747C10.7238 10.527 10.6068 10.3517 10.527 10.1587C10.4472 9.96577 10.4062 9.75899 10.4062 9.55019C10.4064 9.12849 10.5742 8.72415 10.8725 8.42611C11.1708 8.12807 11.5753 7.96074 11.997 7.96094C12.4187 7.96114 12.823 8.12884 13.1211 8.42717C13.4191 8.72549 13.5864 9.12999 13.5863 9.55169ZM13.5863 9.55169C13.5863 9.55094 13.5863 9.55094 13.5863 9.55169ZM11.9962 6.83594C11.2762 6.83594 10.5856 7.12198 10.0765 7.63114C9.56729 8.1403 9.28125 8.83087 9.28125 9.55094C9.28125 10.271 9.56729 10.9616 10.0765 11.4707C10.5856 11.9799 11.2762 12.2659 11.9962 12.2659C12.7163 12.2659 13.4069 11.9799 13.916 11.4707C14.4252 10.9616 14.7113 10.271 14.7113 9.55094C14.7113 8.83087 14.4252 8.1403 13.916 7.63114C13.4069 7.12198 12.7163 6.83594 11.9962 6.83594ZM18.879 12.9837C17.9043 12.9837 16.9515 13.2727 16.141 13.8142C15.3306 14.3558 14.6989 15.1255 14.3259 16.026C13.9529 16.9265 13.8553 17.9174 14.0454 18.8734C14.2356 19.8294 14.705 20.7075 15.3942 21.3967C16.0834 22.086 16.9616 22.5553 17.9175 22.7455C18.8735 22.9357 19.8644 22.8381 20.765 22.465C21.6655 22.092 22.4352 21.4604 22.9767 20.6499C23.5182 19.8395 23.8073 18.8867 23.8073 17.9119C23.8055 16.6054 23.2857 15.353 22.3618 14.4291C21.438 13.5053 20.1855 12.9855 18.879 12.9837ZM18.879 21.7144C18.127 21.7143 17.3919 21.4912 16.7667 21.0733C16.1415 20.6554 15.6543 20.0615 15.3666 19.3667C15.0788 18.672 15.0036 17.9075 15.1504 17.1699C15.2971 16.4324 15.6592 15.7549 16.191 15.2232C16.7227 14.6914 17.4002 14.3293 18.1377 14.1825C18.8753 14.0358 19.6398 14.111 20.3346 14.3987C21.0293 14.6865 21.6232 15.1737 22.0411 15.7989C22.459 16.4241 22.6821 17.1592 22.6823 17.9112C22.6807 18.9193 22.2794 19.8864 21.5665 20.5992C20.8536 21.312 19.8871 21.713 18.879 21.7144Z" stroke="#6200EA" stroke-width="0.3"/>
<path d="M19.4453 18.2508V15.8223C19.4453 15.6731 19.3861 15.53 19.2806 15.4245C19.1751 15.319 19.032 15.2598 18.8828 15.2598C18.7336 15.2598 18.5906 15.319 18.4851 15.4245C18.3796 15.53 18.3203 15.6731 18.3203 15.8223V18.5088C18.32 18.5897 18.3374 18.6698 18.3712 18.7434C18.405 18.8169 18.4544 18.8822 18.5161 18.9348L19.6231 19.8888C19.7361 19.9861 19.8833 20.0346 20.0321 20.0235C20.1809 20.0124 20.3192 19.9426 20.4166 19.8295C20.5139 19.7164 20.5624 19.5693 20.5513 19.4205C20.5402 19.2717 20.4704 19.1334 20.3573 19.036L19.4453 18.2508Z" fill="#6200EA"/>
</svg>
