<svg width="20" height="20" viewBox="0 0 20 20" fill="none" xmlns="http://www.w3.org/2000/svg">
<path fill-rule="evenodd" clip-rule="evenodd" d="M17.0118 9.97635C15.3327 7.71166 12.1848 7.01755 9.68452 8.4611C7.16939 9.91319 6.19993 13.0144 7.35341 15.6104L17.0118 9.97635ZM17.6414 11.0562L7.98337 16.6901C9.66277 18.9536 12.8098 19.6471 15.3095 18.2039C17.8241 16.7521 18.7937 13.6519 17.6414 11.0562Z" fill="white"/>
<path fill-rule="evenodd" clip-rule="evenodd" d="M12.1837 1.39769C14.1538 0.233568 16.6639 0.932521 17.7894 2.92765C18.6909 4.52575 18.4391 6.47929 17.2945 7.7851C16.9911 8.1312 16.4646 8.16584 16.1186 7.86247C15.7724 7.5591 15.7378 7.0326 16.0411 6.6865C16.73 5.90065 16.8836 4.7141 16.3378 3.74655C15.6617 2.54813 14.1818 2.1529 13.0316 2.83258L9.51255 4.9119L10.3013 6.24233C10.5361 6.63822 10.4054 7.14943 10.0095 7.38413C9.61355 7.61884 9.10238 7.48816 8.86763 7.09227L8.07768 5.75975L4.55662 7.8403C3.39464 8.52691 2.98233 10.0646 3.66453 11.2738C4.07139 11.9951 4.76924 12.4243 5.50891 12.5057C5.96639 12.5559 6.29646 12.9676 6.24615 13.4251C6.19584 13.8826 5.7842 14.2126 5.32673 14.1623C4.06565 14.0237 2.88923 13.2917 2.21291 12.0927C1.09356 10.1085 1.75037 7.5626 3.70876 6.40541L12.1837 1.39769Z" fill="white"/>
</svg>
