<svg width="20" height="20" viewBox="0 0 20 20" fill="none" xmlns="http://www.w3.org/2000/svg">
<path fill-rule="evenodd" clip-rule="evenodd" d="M9.79167 17.8885L7.04083 10.815C6.94741 10.5748 6.71609 10.4165 6.45833 10.4165H4.79167C3.52602 10.4165 2.5 11.4425 2.5 12.7082V18.5415C2.5 18.8867 2.77983 19.1665 3.125 19.1665H16.4583C16.8035 19.1665 17.0833 18.8867 17.0833 18.5415V12.7082C17.0833 11.4425 16.0573 10.4165 14.7917 10.4165H13.125C12.8672 10.4165 12.6359 10.5748 12.5425 10.815L9.79167 17.8885Z" fill="white"/>
<path fill-rule="evenodd" clip-rule="evenodd" d="M8.42536 10.7129C8.53928 10.5286 8.74045 10.4165 8.95703 10.4165H10.6237C10.8403 10.4165 11.0414 10.5286 11.1554 10.7129C11.2692 10.8972 11.2796 11.1273 11.1827 11.321L10.434 12.8184L10.8272 15.9639C10.8388 16.0566 10.8294 16.1506 10.7999 16.2391L10.3833 17.4891C10.2982 17.7443 10.0594 17.9165 9.79036 17.9165C9.52136 17.9165 9.28253 17.7443 9.19745 17.4891L8.78078 16.2391C8.75128 16.1506 8.74195 16.0566 8.75353 15.9639L9.1467 12.8184L8.39803 11.321C8.30114 11.1273 8.3115 10.8972 8.42536 10.7129Z" fill="white"/>
<path fill-rule="evenodd" clip-rule="evenodd" d="M6.25 4.79167C6.25 2.83566 7.83566 1.25 9.79167 1.25C11.7477 1.25 13.3333 2.83566 13.3333 4.79167V5.625C13.3333 7.58101 11.7477 9.1667 9.79167 9.1667C7.83566 9.1667 6.25 7.58101 6.25 5.625V4.79167Z" fill="white"/>
</svg>
