<svg width="24" height="24" viewBox="0 0 24 24" fill="none" xmlns="http://www.w3.org/2000/svg">
<path d="M19.6772 17.25C20.3329 17.25 20.8544 16.8374 21.3226 16.2605C22.2812 15.0795 20.7074 14.1357 20.1071 13.6735C19.497 13.2036 18.8157 12.9375 18.125 12.875M17.25 11.125C18.4581 11.125 19.4375 10.1456 19.4375 8.9375C19.4375 7.72938 18.4581 6.75 17.25 6.75" stroke="#171717" stroke-width="1.3" stroke-linecap="round"/>
<path d="M4.32272 17.25C3.66707 17.25 3.14559 16.8374 2.67735 16.2605C1.71883 15.0795 3.29259 14.1357 3.89281 13.6735C4.50298 13.2036 5.18426 12.9375 5.875 12.875M6.3125 11.125C5.10438 11.125 4.125 10.1456 4.125 8.9375C4.125 7.72938 5.10438 6.75 6.3125 6.75" stroke="#171717" stroke-width="1.3" stroke-linecap="round"/>
<path d="M8.57333 14.7223C7.67927 15.2751 5.33511 16.404 6.76286 17.8165C7.46031 18.5065 8.23708 19 9.21367 19H14.7864C15.763 19 16.5397 18.5065 17.2372 17.8165C18.6649 16.404 16.3208 15.2751 15.4267 14.7223C13.3301 13.4259 10.6698 13.4259 8.57333 14.7223Z" stroke="#171717" stroke-width="1.3" stroke-linecap="round" stroke-linejoin="round"/>
<path d="M15.0625 8.0625C15.0625 9.75387 13.6914 11.125 12 11.125C10.3086 11.125 8.9375 9.75387 8.9375 8.0625C8.9375 6.37112 10.3086 5 12 5C13.6914 5 15.0625 6.37112 15.0625 8.0625Z" stroke="#171717" stroke-width="1.3"/>
</svg>
