<svg width="29" height="28" viewBox="0 0 29 28" fill="none" xmlns="http://www.w3.org/2000/svg">
<path d="M14.8021 10.5016C13.5134 10.5016 12.4688 11.2851 12.4688 12.2517C12.4688 13.2181 13.5134 14.0017 14.8021 14.0017C16.0907 14.0017 17.1354 14.7852 17.1354 15.7517C17.1354 16.7181 16.0907 17.5017 14.8021 17.5017M14.8021 10.5016C15.818 10.5016 16.6823 10.9886 17.0025 11.6683M14.8021 10.5016V9.33496M14.8021 17.5017C13.786 17.5017 12.9218 17.0147 12.6015 16.335M14.8021 17.5017V18.6683" stroke="white" stroke-width="2" stroke-linecap="round"/>
<path d="M16.5443 2.91846C16.5443 2.91846 15.5922 2.91846 14.7943 2.91846C9.56954 2.91846 6.95718 2.91846 5.33405 4.54158C3.71094 6.1647 3.71094 8.77706 3.71094 14.0018C3.71094 19.2265 3.71094 21.8389 5.33405 23.4621C6.95718 25.0852 9.56954 25.0852 14.7943 25.0852C20.019 25.0852 22.6314 25.0852 24.2545 23.4621C25.8776 21.8389 25.8776 19.2265 25.8776 14.0018C25.8776 13.204 25.8776 12.2518 25.8776 12.2518" stroke="white" stroke-width="2" stroke-linecap="round"/>
<path d="M20.0469 8.74935L24.9186 3.87478M25.8802 8.14063L25.7423 4.53389C25.7423 3.6838 25.2347 3.15416 24.3101 3.08734L20.6654 2.91602" stroke="white" stroke-width="2" stroke-linecap="round" stroke-linejoin="round"/>
</svg>
