<svg width="24" height="24" viewBox="0 0 24 24" fill="none" xmlns="http://www.w3.org/2000/svg">
<g clip-path="url(#clip0_4213_113005)">
<path fill-rule="evenodd" clip-rule="evenodd" d="M18 2.99989C18 1.45714 16.4828 0.371889 15.0225 0.870639L9.0225 2.91964C8.57834 3.0714 8.19276 3.35827 7.91975 3.74008C7.64675 4.12189 7.49998 4.57952 7.5 5.04889V9.74989H3C2.40326 9.74989 1.83097 9.98694 1.40901 10.4089C0.987053 10.8309 0.75 11.4032 0.75 11.9999V20.9999C0.75 21.5966 0.987053 22.1689 1.40901 22.5909C1.83097 23.0128 2.40326 23.2499 3 23.2499H13.4059C12.7703 22.8416 12.2033 22.3353 11.7259 21.7499H9V5.04889C9.00006 4.89244 9.04905 4.73993 9.14009 4.61271C9.23114 4.48549 9.35969 4.38992 9.50775 4.33939L15.5077 2.29001C15.6207 2.25148 15.7411 2.24044 15.8591 2.2578C15.9772 2.27516 16.0894 2.32043 16.1864 2.38984C16.2834 2.45925 16.3625 2.55081 16.417 2.65691C16.4716 2.76301 16.5 2.88059 16.5 2.99989V10.1639C16.9986 10.1117 17.5014 10.1117 18 10.1639V2.99989ZM2.25 20.9999C2.25 21.1988 2.32902 21.3896 2.46967 21.5302C2.61032 21.6709 2.80109 21.7499 3 21.7499V19.8749C3 19.3776 3.19754 18.9007 3.54917 18.5491C3.90081 18.1974 4.37772 17.9999 4.875 17.9999C5.37228 17.9999 5.84919 18.1974 6.20083 18.5491C6.55246 18.9007 6.75 19.3776 6.75 19.8749V21.7499H7.5V11.2499H3C2.80109 11.2499 2.61032 11.3289 2.46967 11.4696C2.32902 11.6102 2.25 11.801 2.25 11.9999V20.9999ZM5.25 21.7499V19.8749C5.25 19.7754 5.21049 19.68 5.14016 19.6097C5.06984 19.5394 4.97446 19.4999 4.875 19.4999C4.77554 19.4999 4.68016 19.5394 4.60984 19.6097C4.53951 19.68 4.5 19.7754 4.5 19.8749V21.7499H5.25Z" fill="#EF8400"/>
<path d="M12.4331 12C13.0141 11.4663 13.6797 11.0326 14.4026 10.7167C14.2623 10.5776 14.0726 10.4997 13.875 10.5H11.625C11.4261 10.5 11.2353 10.579 11.0947 10.7197C10.954 10.8603 10.875 11.0511 10.875 11.25C10.875 11.4489 10.954 11.6397 11.0947 11.7803C11.2353 11.921 11.4261 12 11.625 12H12.4331ZM13.875 7.5C14.0739 7.5 14.2647 7.57902 14.4053 7.71967C14.546 7.86032 14.625 8.05109 14.625 8.25C14.625 8.44891 14.546 8.63968 14.4053 8.78033C14.2647 8.92098 14.0739 9 13.875 9H11.625C11.4261 9 11.2353 8.92098 11.0947 8.78033C10.954 8.63968 10.875 8.44891 10.875 8.25C10.875 8.05109 10.954 7.86032 11.0947 7.71967C11.2353 7.57902 11.4261 7.5 11.625 7.5H13.875ZM14.625 16.5C14.4261 16.5 14.2353 16.579 14.0947 16.7197C13.954 16.8603 13.875 17.0511 13.875 17.25C13.875 17.4489 13.954 17.6397 14.0947 17.7803C14.2353 17.921 14.4261 18 14.625 18H19.875C20.0739 18 20.2647 17.921 20.4053 17.7803C20.546 17.6397 20.625 17.4489 20.625 17.25C20.625 17.0511 20.546 16.8603 20.4053 16.7197C20.2647 16.579 20.0739 16.5 19.875 16.5H14.625Z" fill="#EF8400"/>
<path fill-rule="evenodd" clip-rule="evenodd" d="M17.25 11.25C20.5639 11.25 23.25 13.9361 23.25 17.25C23.25 20.5639 20.5639 23.25 17.25 23.25C13.9361 23.25 11.25 20.5639 11.25 17.25C11.25 13.9361 13.9361 11.25 17.25 11.25ZM21.75 17.25C21.75 14.7649 19.7351 12.75 17.25 12.75C14.7649 12.75 12.75 14.7649 12.75 17.25C12.75 19.7351 14.7649 21.75 17.25 21.75C19.7351 21.75 21.75 19.7351 21.75 17.25Z" fill="#EF8400"/>
</g>
<defs>
<clipPath id="clip0_4213_113005">
<rect width="24" height="24" fill="white"/>
</clipPath>
</defs>
</svg>
